#!OML:ASF F:\VICON\USERDATA\INSTALL\Justin_Nancy\Justin_Nancy.ASF
:FULLY-SPECIFIED
:DEGREES
247
root -0.28055 17.1764 33.9459 -1.34755 -2.43648 -3.47148
lowerback 6.00123 0.477223 2.68293
upperback -0.0375162 0.941098 3.38749
thorax -3.42179 0.450014 1.91061
lowerneck -16.7847 -2.62279 -10.0444
upperneck 20.1687 -1.96117 4.43337
head 9.27819 -1.20245 2.94396
rclavicle 5.28022e-015 -1.82882e-014
rhumerus -30.8453 -8.56466 -79.3065
rradius 30.3214
rwrist 3.93875
rhand -13.9246 11.0687
rfingers 7.12502
rthumb 12.2018 -18.5555
lclavicle 5.28022e-015 -1.82882e-014
lhumerus -35.2025 1.26926 84.4261
lradius 36.3924
lwrist -3.89247
lhand -12.5707 25.2116
lfingers 7.12502
lthumb 13.507 54.7536
rfemur -3.8002 6.3221 30.2411
rtibia 26.833
rfoot -15.2778 -4.21051
rtoes 3.71289
lfemur -27.4561 2.7038 -16.0645
ltibia 63.8092
lfoot -8.51802 -1.42132
ltoes -11.8466
248
root -0.275203 17.1636 34.1773 -1.19872 -2.81668 -4.19702
lowerback 6.08905 0.556745 3.5251
upperback 0.0673329 1.1104 3.53372
thorax -3.35278 0.521854 1.57477
lowerneck -17.305 -2.70182 -10.094
upperneck 20.1915 -2.01893 4.51609
head 9.38745 -1.21946 2.97301
rclavicle -9.08197e-015 -1.59028e-015
rhumerus -29.8833 -7.66945 -79.7632
rradius 31.1511
rwrist 2.96974
rhand -14.2762 10.4426
rfingers 7.12502
rthumb 11.8628 -19.2013
lclavicle -9.08197e-015 -1.59028e-015
lhumerus -35.4534 1.09616 84.6999
lradius 36.092
lwrist -3.78176
lhand -12.5036 25.0562
lfingers 7.12502
lthumb 13.5716 54.5939
rfemur -2.83395 6.36897 31.1071
rtibia 26.3996
rfoot -15.7941 -4.29148
rtoes 4.33994
lfemur -28.5656 2.92904 -15.3517
ltibia 62.394
lfoot -9.09092 -0.355884
ltoes -11.446
249
root -0.271434 17.1443 34.3999 -0.979508 -3.14366 -4.40627
lowerback 6.20677 0.631125 3.80112
upperback 0.101065 1.23437 3.53599
thorax -3.37874 0.578651 1.41063
lowerneck -17.6929 -2.66532 -9.8965
upperneck 20.2746 -1.93921 4.33776
head 9.47737 -1.18497 2.88886
rclavicle 1.82136e-014 3.4191e-014
rhumerus -28.9888 -6.81234 -80.1954
rradius 32.055
rwrist 2.37192
rhand -14.1305 9.45727
rfingers 7.12502
rthumb 12.0033 -20.1785
lclavicle 1.82136e-014 3.4191e-014
lhumerus -35.747 1.01266 84.9388
lradius 35.7894
lwrist -3.67559
lhand -12.6498 25.1413
lfingers 7.12502
lthumb 13.4308 54.6883
rfemur -1.90352 6.40977 31.4511
rtibia 25.8777
rfoot -16.1096 -4.58034
rtoes 3.5308
lfemur -29.7364 3.11421 -15.218
ltibia 60.7935
lfoot -9.22476 0.708004
ltoes -9.65399
250
root -0.270379 17.1196 34.6314 -0.814191 -3.56359 -4.40898
lowerback 6.30705 0.748876 3.82969
upperback 0.0639259 1.40025 3.50083
thorax -3.47163 0.658882 1.34199
lowerneck -17.6602 -2.64274 -9.95162
upperneck 20.2045 -1.91673 4.42981
head 9.44617 -1.16728 2.93245
rclavicle 4.00054e-015 -1.66979e-014
rhumerus -28.305 -5.90376 -80.5353
rradius 32.9919
rwrist 1.76492
rhand -13.9544 8.43327
rfingers 7.12502
rthumb 12.1731 -21.1925
lclavicle 4.00054e-015 -1.66979e-014
lhumerus -36.2738 0.934249 85.1599
lradius 35.4546
lwrist -3.70039
lhand -12.7949 24.7371
lfingers 7.12502
lthumb 13.2909 54.2933
rfemur -0.817433 6.38797 31.5505
rtibia 25.3096
rfoot -16.3494 -4.77969
rtoes 2.93679
lfemur -30.74 3.28293 -15.2912
ltibia 59.0146
lfoot -9.34838 1.9319
ltoes -7.06282
251
root -0.267639 17.1008 34.8624 -0.671018 -3.9775 -4.5095
lowerback 6.37854 0.90689 4.00181
upperback 0.116359 1.62401 3.48045
thorax -3.4513 0.767329 1.20346
lowerneck -17.7103 -2.71613 -10.0125
upperneck 20.0054 -2.0116 4.50768
head 9.39464 -1.20279 2.95411
rclavicle -2.45996e-014 3.97569e-015
rhumerus -27.4371 -5.17879 -80.7681
rradius 33.7324
rwrist 1.0121
rhand -14.2409 9.1856
rfingers 7.12502
rthumb 11.8968 -20.4564
lclavicle -2.45996e-014 3.97569e-015
lhumerus -36.6899 0.646264 85.4762
lradius 35.1764
lwrist -3.56847
lhand -12.6001 24.5422
lfingers 7.12502
lthumb 13.4787 54.0861
rfemur 0.183825 6.47473 31.7499
rtibia 24.7677
rfoot -16.7613 -4.97811
rtoes 3.5913
lfemur -31.5934 3.44088 -15.2454
ltibia 56.9369
lfoot -9.40132 3.1522
ltoes -6.94197
252
root -0.258832 17.0864 35.0931 -0.361896 -4.24618 -4.50415
lowerback 6.32049 0.971348 4.07063
upperback 0.127324 1.7094 3.45954
thorax -3.40405 0.809029 1.13664
lowerneck -17.9907 -2.73887 -9.91809
upperneck 20.0273 -2.00599 4.36656
head 9.45105 -1.20651 2.8894
rclavicle -1.66482e-015 -1.59028e-015
rhumerus -26.441 -4.19081 -81.026
rradius 34.4277
rwrist 0.192251
rhand -14.6191 10.8166
rfingers 7.12502
rthumb 11.5321 -18.8461
lclavicle -1.66482e-015 -1.59028e-015
lhumerus -37.0686 0.781185 85.7231
lradius 34.8522
lwrist -3.4547
lhand -12.8013 24.2073
lfingers 7.12502
lthumb 13.2848 53.7639
rfemur 0.989113 6.47923 31.7648
rtibia 24.1918
rfoot -17.2273 -5.12107
rtoes 4.27921
lfemur -32.4595 3.40321 -15.3264
ltibia 54.559
lfoot -9.21051 4.21176
ltoes -7.26325
253
root -0.25351 17.0733 35.3273 0.0379964 -4.48786 -4.51837
lowerback 6.21326 1.04244 4.13382
upperback 0.0496652 1.8046 3.43301
thorax -3.42075 0.854263 1.06681
lowerneck -18.0502 -2.80311 -9.97946
upperneck 19.9112 -2.07688 4.39734
head 9.42814 -1.23782 2.89891
rclavicle -1.50828e-014 2.38542e-015
rhumerus -25.6749 -3.45107 -81.1895
rradius 35.3317
rwrist -0.230597
rhand -14.619 11.3561
rfingers 7.12502
rthumb 11.5322 -18.3066
lclavicle -1.50828e-014 2.38542e-015
lhumerus -37.5304 0.704818 86.0311
lradius 34.5214
lwrist -3.40285
lhand -13.2676 24.0163
lfingers 7.12502
lthumb 12.8352 53.6017
rfemur 1.75035 6.48747 31.8073
rtibia 23.5207
rfoot -17.4014 -5.41396
rtoes 3.72082
lfemur -33.242 3.17182 -15.2957
ltibia 51.9249
lfoot -9.05868 5.11424
ltoes -6.45458
254
root -0.25288 17.0607 35.5604 0.296585 -4.79573 -4.53656
lowerback 6.24147 1.19351 4.21177
upperback 0.0622916 2.01037 3.37685
thorax -3.41661 0.954719 0.946398
lowerneck -18.138 -2.8839 -10.183
upperneck 19.629 -2.17705 4.65484
head 9.35837 -1.26435 3.00525
rclavicle -2.3059e-014 2.38542e-015
rhumerus -24.9377 -2.88807 -81.3035
rradius 36.3318
rwrist -0.787464
rhand -14.6666 11.2163
rfingers 7.12502
rthumb 11.4863 -18.449
lclavicle -2.3059e-014 2.38542e-015
lhumerus -37.8083 0.641948 86.2557
lradius 34.171
lwrist -3.93615
lhand -12.8937 24.4273
lfingers 7.12502
lthumb 13.1957 53.9896
rfemur 2.81559 6.73377 31.9164
rtibia 22.6885
rfoot -17.3518 -5.81293
rtoes 2.23609
lfemur -33.7644 2.84325 -15.1668
ltibia 49.1153
lfoot -8.59738 5.89423
ltoes -6.15973
255
root -0.243187 17.048 35.7986 0.497022 -4.94179 -4.54283
lowerback 6.26584 1.23678 4.35446
upperback 0.097097 2.07593 3.32625
thorax -3.38645 0.985068 0.808447
lowerneck -18.2859 -2.91726 -10.1882
upperneck 19.4405 -2.19672 4.63151
head 9.32103 -1.27112 2.99214
rclavicle -1.19271e-014 -1.74931e-014
rhumerus -24.1799 -2.31774 -81.397
rradius 37.2356
rwrist -1.11514
rhand -14.7797 11.3195
rfingers 7.12502
rthumb 11.3772 -18.3519
lclavicle -1.19271e-014 -1.74931e-014
lhumerus -38.1557 0.691051 86.4967
lradius 33.9481
lwrist -4.11146
lhand -12.7466 24.5305
lfingers 7.12502
lthumb 13.3374 54.0837
rfemur 4.10393 6.69834 31.915
rtibia 21.6881
rfoot -17.324 -6.05924
rtoes 0.52963
lfemur -34.1555 2.38596 -15.0815
ltibia 46.2429
lfoot -7.46003 6.61759
ltoes -4.8954
256
root -0.23752 17.0334 36.0441 0.738149 -5.22272 -4.7167
lowerback 6.28469 1.2866 4.55156
upperback -0.0543498 2.16705 3.34946
thorax -3.5468 1.02311 0.712665
lowerneck -17.7768 -2.81516 -9.9643
upperneck 19.1058 -2.11356 4.38148
head 9.10057 -1.24167 2.87544
rclavicle 1.18277e-014 4.45278e-014
rhumerus -23.7655 -1.47756 -81.5202
rradius 38.1412
rwrist -1.43302
rhand -15.0253 11.3232
rfingers 7.12502
rthumb 11.1403 -18.3611
lclavicle 1.18277e-014 4.45278e-014
lhumerus -38.8711 0.887926 86.6772
lradius 33.6235
lwrist -4.24464
lhand -12.9666 24.4376
lfingers 7.12502
lthumb 13.1254 54.0045
rfemur 5.37833 6.80597 32.0848
rtibia 20.5827
rfoot -17.4708 -6.11314
rtoes 0.135213
lfemur -34.5952 1.93156 -14.6939
ltibia 43.3686
lfoot -5.8944 7.3162
ltoes -1.79488
257
root -0.23919 17.0031 36.2855 0.943868 -5.69527 -4.98105
lowerback 6.58267 1.40533 4.75831
upperback -0.389245 2.38261 3.36654
thorax -4.0519 1.11402 0.584195
lowerneck -17.0442 -2.68101 -9.72767
upperneck 18.8668 -2.04006 4.24863
head 8.87549 -1.20673 2.7988
rclavicle -1.98785e-016 -2.14687e-014
rhumerus -23.7205 -0.83963 -81.6796
rradius 39.1007
rwrist -1.98613
rhand -15.1482 11.1418
rfingers 7.12502
rthumb 11.0218 -18.5489
lclavicle -1.98785e-016 -2.14687e-014
lhumerus -39.8044 0.972543 86.7582
lradius 33.0651
lwrist -4.55874
lhand -13.2403 23.8312
lfingers 7.12502
lthumb 12.8616 53.4149
rfemur 6.83174 7.11655 32.4476
rtibia 19.4144
rfoot -17.3196 -6.27794
rtoes -1.46963
lfemur -34.9527 1.57065 -14.0766
ltibia 40.5203
lfoot -4.89102 7.97782
ltoes -1.36752
258
root -0.237371 16.9595 36.5239 1.08194 -6.07044 -5.06937
lowerback 6.67792 1.53236 4.82215
upperback -0.399838 2.56473 3.37658
thorax -4.11034 1.20161 0.538639
lowerneck -16.7875 -2.77669 -9.82865
upperneck 18.5156 -2.17131 4.26029
head 8.72093 -1.2699 2.7991
rclavicle -4.05024e-015 2.3059e-014
rhumerus -23.0542 -0.282033 -81.6977
rradius 39.7168
rwrist -2.62252
rhand -15.227 11.4275
rfingers 7.12502
rthumb 10.9458 -18.2671
lclavicle -4.05024e-015 2.3059e-014
lhumerus -40.0135 1.17489 86.9358
lradius 32.2789
lwrist -5.11607
lhand -13.587 23.3476
lfingers 7.12502
lthumb 12.5273 52.952
rfemur 8.33321 7.35163 32.6053
rtibia 18.3339
rfoot -16.8057 -6.37067
rtoes -4.15696
lfemur -35.0984 0.823229 -13.5729
ltibia 37.6645
lfoot -4.79733 8.97674
ltoes -2.70161
259
root -0.225771 16.9274 36.7628 1.4025 -6.21467 -5.28468
lowerback 6.23625 1.56329 5.12007
upperback -0.0976089 2.5776 3.43393
thorax -3.53646 1.21659 0.448475
lowerneck -17.1843 -2.98329 -10.0812
upperneck 18.1234 -2.37177 4.40537
head 8.67914 -1.35484 2.85888
rclavicle -4.77083e-015 3.73715e-014
rhumerus -21.7165 0.110096 -81.6586
rradius 40.1313
rwrist -2.92844
rhand -15.2668 12.0869
rfingers 7.12502
rthumb 10.9074 -17.6098
lclavicle -4.77083e-015 3.73715e-014
lhumerus -39.4818 1.37338 87.2128
lradius 31.3824
lwrist -5.29373
lhand -13.6629 23.5687
lfingers 7.12502
lthumb 12.4542 53.1777
rfemur 9.44307 7.31549 32.706
rtibia 17.3874
rfoot -16.7231 -5.94516
rtoes -5.8605
lfemur -35.425 -0.271951 -12.8371
ltibia 34.8159
lfoot -5.20388 10.1458
ltoes -1.93458
260
root -0.215839 16.8956 37.014 1.74034 -6.39175 -5.27912
lowerback 5.73935 1.59938 5.23954
upperback 0.0954256 2.57994 3.37121
thorax -3.0482 1.22727 0.335334
lowerneck -17.4417 -3.0133 -10.1078
upperneck 17.6943 -2.39525 4.51835
head 8.58187 -1.34467 2.89319
rclavicle -1.36167e-014 2.3059e-014
rhumerus -20.631 0.51893 -81.6831
rradius 40.5654
rwrist -3.26619
rhand -15.4843 12.9292
rfingers 7.12502
rthumb 10.6977 -16.7785
lclavicle -1.36167e-014 2.3059e-014
lhumerus -39.1647 1.92193 87.1808
lradius 30.4924
lwrist -6.00746
lhand -13.2715 23.6361
lfingers 7.12502
lthumb 12.8315 53.2217
rfemur 10.5944 7.26 32.5015
rtibia 16.4164
rfoot -16.7748 -5.37253
rtoes -7.11285
lfemur -35.7023 -1.29477 -12.3387
ltibia 32.0534
lfoot -5.37691 11.1578
ltoes -4.38858
